# xmcd
#
# Track frame offsets:
#	150
#	16616
#	31828
#	45488
#	61452
#	74942
#	92323
#	104448
#	118914
#	135884
#	150615
#	164185
#	176626
#	191422
#	204726
#	219819
#
# Disc length: 3181 seconds
#
# Revision: 0
# Processed by: cddbd v1.5.2PL0 Copyright (c) Steve Scherf et al.
# Submitted via: EasyCDDAExtractor 16.0.6.1
#
DISCID=da0c6b10
DTITLE=Συλλογικός δίσκος - Ουζερί Τομπουρλίκα
DYEAR=1999
DGENRE=Ρεμπέτικη
TTITLE0=Χατζηκυριάκος Παντελής - Αμερικάνος
TTITLE1=Χατζηκυριάκος Παντελής - Έφυγες και χάθηκα
TTITLE2=Χατζηκυριάκος Παντελής - Απόψε κέρνα με
TTITLE3=Μυστακίδης Δημήτρης - Λαθρέμποροι
TTITLE4=Χατζηκυριάκος Παντελής - Καϊκτσής (Καϊξής)
TTITLE5=Χατζηκυριάκος Παντελής-Μυστακίδης Δημήτρης - Λέου, λέου (Δε μού λέτε)
TTITLE6=Χατζηκυριάκος Παντελής-Μυστακίδης Δημήτρης - Θέλω να πάψεις, να γελάς
TTITLE7=Χατζηκυριάκος Παντελής - Πήρα την σκέψη μου
TTITLE8=Μυστακίδης Δημήτρης - Στα όρη βγαίνει η κάπαρη
TTITLE9=Χατζηκυριάκος Παντελής-Μυστακίδης Δημήτρης - Στην Καλαμπάκα μιά βραδιά
TTITLE10=Χατζηκυριάκος Παντελής-Μυστακίδης Δημήτρης - Μάγισσα τσιγγάνα
TTITLE11=Χατζηκυριάκος Παντελής - Μπρος στα κλειστά παράθυρα
TTITLE12=Χατζηκυριάκος Παντελής - Θέλω βαθιά να κοιμηθώ
TTITLE13=Χατζηκυριάκος Παντελής-Μυστακίδης Δημήτρης - Θα σού φύγω με καιρό
TTITLE14=Μυστακίδης Δημήτρης - Στα πεύκα και τα έλατα
TTITLE15=Χατζηκυριάκος Παντελής - Γλυκοχάραμα
EXTD=
EXTT0=
EXTT1=
EXTT2=
EXTT3=
EXTT4=
EXTT5=
EXTT6=
EXTT7=
EXTT8=
EXTT9=
EXTT10=
EXTT11=
EXTT12=
EXTT13=
EXTT14=
EXTT15=
PLAYORDER=
